<svg width="160" height="37" viewBox="0 0 160 37" fill="none" xmlns="http://www.w3.org/2000/svg">
<path d="M25.7302 5.03509H19.4539V18.6398H12.8493V5.03509H6.57303V18.6398H0V5.10069C0 4.47096 0.126283 3.88059 0.378849 3.32302C0.631415 2.76544 0.966065 2.28659 1.37649 1.87333C1.79322 1.46663 2.27309 1.13865 2.81611 0.895938C3.35913 0.65323 3.94003 0.535156 4.54619 0.535156H32.3411V18.6398H25.7365V5.03509H25.7302Z" fill="#B5D411"/>
<path d="M61.102 14.1399V18.6398H40.038C39.4129 18.6398 38.8193 18.5152 38.2637 18.2594C37.708 18.0101 37.2219 17.669 36.8114 17.2361C36.3947 16.8031 36.0664 16.3046 35.8264 15.7273C35.5865 15.1501 35.4602 14.5335 35.4602 13.8841V5.29092C35.4602 4.64151 35.5802 4.0249 35.8264 3.44765C36.0664 2.8704 36.3947 2.3653 36.8114 1.93893C37.2282 1.50599 37.708 1.16488 38.2637 0.915617C38.8193 0.66635 39.4129 0.535156 40.038 0.535156H61.102V5.03509H42.0711V14.1333H61.102V14.1399ZM45.7649 11.7128V7.49496H59.7697V11.7128H45.7649Z" fill="#B5D411"/>
<path d="M64.1958 14.1399H73.6544V5.03509H64.2274V0.535156H89.7176V5.03509H80.259V14.1334H89.686V18.6333H64.1958V14.1334V14.1399Z" fill="#B5D411"/>
<path d="M99.41 18.6398H92.8054V0.535156H113.933C114.539 0.535156 115.113 0.65323 115.663 0.895938C116.206 1.13865 116.686 1.46007 117.102 1.87333C117.519 2.28003 117.847 2.76544 118.1 3.32302C118.352 3.88059 118.479 4.47096 118.479 5.10069V18.6398H111.899V5.03509H99.41V18.6398Z" fill="#B5D411"/>
<path d="M147.208 14.1399V18.6398H126.144C125.519 18.6398 124.926 18.5152 124.37 18.2594C123.814 18.0101 123.328 17.669 122.918 17.2361C122.501 16.8031 122.173 16.3046 121.933 15.7273C121.693 15.1501 121.566 14.5335 121.566 13.8841V5.29092C121.566 4.64151 121.686 4.0249 121.933 3.44765C122.173 2.8704 122.501 2.3653 122.918 1.93893C123.334 1.50599 123.814 1.16488 124.37 0.915617C124.926 0.66635 125.519 0.535156 126.144 0.535156H147.208V5.03509H128.177V14.1333H147.208V14.1399ZM131.871 11.7128V7.49496H145.876V11.7128H131.871Z" fill="#B5D411"/>
<path d="M16.6694 34.0739V36.9995H2.97396C2.56355 36.9995 2.1847 36.9208 1.81848 36.7568C1.45857 36.5928 1.14286 36.3698 0.871353 36.0943C0.599844 35.8188 0.391477 35.4842 0.233624 35.1103C0.0757699 34.7364 0 34.3363 0 33.9099V28.321C0 27.9012 0.0757699 27.5011 0.233624 27.1206C0.391477 26.7467 0.606159 26.4187 0.871353 26.1367C1.14286 25.8546 1.45857 25.6381 1.81848 25.4742C2.17838 25.3102 2.56355 25.2314 2.97396 25.2314H16.663V28.1571H4.29362V34.0739H16.663H16.6694ZM6.69931 32.4996V29.7576H15.798V32.4996H6.69931Z" fill="#B5D411"/>
<path d="M22.9899 34.0739H35.3593V36.9995H18.6899V25.2314H22.9836V34.0739H22.9899Z" fill="#B5D411"/>
<path d="M54.0366 34.0739V36.9995H40.3475C39.9371 36.9995 39.5582 36.9208 39.192 36.7568C38.8321 36.5928 38.5164 36.3698 38.2449 36.0943C37.9734 35.8188 37.765 35.4842 37.6072 35.1103C37.4493 34.7364 37.3735 34.3363 37.3735 33.9099V28.321C37.3735 27.9012 37.4493 27.5011 37.6072 27.1206C37.765 26.7467 37.9797 26.4187 38.2449 26.1367C38.5164 25.8546 38.8321 25.6381 39.192 25.4742C39.5519 25.3102 39.9371 25.2314 40.3475 25.2314H54.0366V28.1571H41.6672V34.0739H54.0366ZM44.0665 32.4996V29.7576H53.1652V32.4996H44.0665Z" fill="#B5D411"/>
<path d="M60.3632 34.0739H72.7326V36.9995H59.0435C58.6331 36.9995 58.2543 36.9208 57.8881 36.7568C57.5282 36.5928 57.2124 36.3698 56.9409 36.0943C56.6694 35.8188 56.4611 35.4842 56.3032 35.1103C56.1454 34.7364 56.0696 34.3363 56.0696 33.9099V28.321C56.0696 27.9012 56.1454 27.5011 56.3032 27.1206C56.4611 26.7467 56.6757 26.4187 56.9409 26.1367C57.2124 25.8546 57.5282 25.6381 57.8881 25.4742C58.248 25.3102 58.6331 25.2314 59.0435 25.2314H72.7326V28.1571H60.3632V34.0739Z" fill="#B5D411"/>
<path d="M91.3091 28.1571H85.1844V36.9995H80.8907V28.1571H74.7471V25.2314H91.3154V28.1571H91.3091Z" fill="#B5D411"/>
<path d="M105.73 28.1571H97.6166V36.9995H93.323V25.2314H106.658C107.075 25.2314 107.486 25.3036 107.89 25.4545C108.288 25.6053 108.647 25.8153 108.963 26.0908C109.279 26.3663 109.531 26.6877 109.721 27.0616C109.91 27.4355 110.005 27.8488 110.005 28.3014V29.7117C110.005 30.1184 109.904 30.512 109.702 30.8859C109.5 31.2598 109.235 31.5878 108.913 31.8698C108.591 32.1519 108.231 32.3749 107.839 32.5455C107.448 32.716 107.063 32.8013 106.696 32.8013L109.828 36.9995H105.219L100.136 30.0397H105.73V28.1571Z" fill="#B5D411"/>
<path d="M111.994 34.0739H118.138V28.1571H112.013V25.2314H128.581V28.1571H122.438V34.0739H128.562V36.9995H111.994V34.0739Z" fill="#B5D411"/>
<path d="M134.889 34.0739H147.258V36.9995H133.569C133.159 36.9995 132.78 36.9208 132.414 36.7568C132.054 36.5928 131.738 36.3698 131.467 36.0943C131.195 35.8122 130.987 35.4842 130.829 35.1103C130.671 34.7364 130.589 34.3363 130.589 33.9099V28.321C130.589 27.9012 130.665 27.5011 130.829 27.1206C130.987 26.7467 131.202 26.4187 131.467 26.1367C131.738 25.8546 132.054 25.6381 132.414 25.4742C132.774 25.3102 133.159 25.2314 133.569 25.2314H147.258V28.1571H134.889V34.0739Z" fill="#B5D411"/>
<path d="M152.177 5.59922V1.20424H150.617V0.535156H154.557V1.20424H153.004V5.60578H152.177V5.59922Z" fill="#B5D411"/>
<path d="M155.22 5.59922V0.535156H156.066L157.613 3.81499L159.154 0.535156H160V5.60578H159.179V1.92581L157.859 4.72679H157.361L156.035 1.92581V5.59922H155.214H155.22Z" fill="#B5D411"/>
</svg>
